G04 Layer: TopLayer*
G04 EasyEDA v6.4.7, 2020-11-20T12:49:30+01:00*
G04 3459f72c1cfb4ed1b42eaf7d9b2f9cca,50b924b206514efda7368a069ed08794,10*
G04 Gerber Generator version 0.2*
G04 Scale: 100 percent, Rotated: No, Reflected: No *
G04 Dimensions in millimeters *
G04 leading zeros omitted , absolute positions ,3 integer and 3 decimal *
%FSLAX33Y33*%
%MOMM*%
G90*
D02*

%ADD11C,0.699999*%
%ADD12C,0.610006*%
%ADD13C,3.810000*%
%ADD14C,1.778000*%
%ADD16C,1.799996*%
%ADD18C,1.397000*%
%ADD19C,1.879600*%
%ADD21C,1.419860*%
%ADD22C,1.651000*%
%ADD23C,2.299970*%
%ADD24C,1.999996*%

%LPD*%
G54D11*
G01X41488Y50170D02*
G01X41488Y52232D01*
G01X75727Y44201D02*
G01X67695Y52232D01*
G01X41488Y52232D01*
G01X41488Y52232D02*
G01X20182Y52232D01*
G01X14818Y46868D01*
G01X12278Y39248D02*
G01X15435Y36090D01*
G01X39689Y36090D01*
G01X46374Y42776D01*
G01X46374Y43009D01*
G01X13294Y14102D02*
G01X30451Y14102D01*
G01X35590Y8966D01*
G01X14818Y39248D02*
G01X16570Y37495D01*
G01X39110Y37495D01*
G01X43834Y42219D01*
G01X43834Y43009D01*
G01X16672Y31348D02*
G01X10169Y31348D01*
G01X38948Y50170D02*
G01X38948Y49248D01*
G01X36568Y46868D01*
G01X17358Y46868D01*
G01X75600Y17759D02*
G01X69097Y17759D01*
G01X16672Y26827D02*
G01X10169Y26827D01*
G01X75600Y26827D02*
G01X69097Y26827D01*
G01X50179Y8966D02*
G01X42504Y16642D01*
G01X13294Y16642D01*
G01X75600Y31348D02*
G01X69097Y31348D01*
G01X12278Y46868D02*
G01X14028Y45117D01*
G01X37317Y45117D01*
G01X38719Y46520D01*
G01X40703Y46520D01*
G01X44028Y49844D01*
G01X44028Y50170D01*
G01X16397Y3489D02*
G01X23255Y3489D01*
G01X23255Y3489D02*
G01X30113Y3489D01*
G01X49108Y50170D02*
G01X49108Y44950D01*
G01X69224Y44201D02*
G01X68475Y44950D01*
G01X49108Y44950D01*
G01X49108Y44950D02*
G01X39773Y44950D01*
G01X38754Y43931D01*
G01X38754Y43009D01*
G01X17358Y39248D02*
G01X34993Y39248D01*
G01X38754Y43009D01*
G01X75600Y13238D02*
G01X69097Y13238D01*
G01X56435Y39400D02*
G01X51724Y34688D01*
G01X14297Y34688D01*
G01X9738Y39248D01*
G01X32359Y27995D02*
G01X53159Y27995D01*
G01X53159Y27995D02*
G01X55358Y27995D01*
G01X53159Y27995D02*
G01X57853Y27995D01*
G01X58003Y28145D01*
G01X69372Y3489D02*
G01X67426Y1544D01*
G01X32059Y1544D01*
G01X30113Y3489D01*
G54D13*
G01X4658Y49535D03*
G01X80985Y49535D03*
G01X4658Y4577D03*
G01X80985Y4577D03*
G54D14*
G01X43834Y43009D03*
G01X46374Y43009D03*
G01X38754Y43009D03*
G36*
G01X40405Y43898D02*
G01X42183Y43898D01*
G01X42183Y42120D01*
G01X40405Y42120D01*
G01X40405Y43898D01*
G37*
G54D16*
G01X40345Y4958D03*
G01X42885Y4958D03*
G01X45425Y4958D03*
G36*
G01X9039Y39946D02*
G01X10436Y39946D01*
G01X10436Y38549D01*
G01X9039Y38549D01*
G01X9039Y39946D01*
G37*
G54D18*
G01X12278Y39248D03*
G01X14818Y39248D03*
G01X17358Y39248D03*
G01X17358Y46868D03*
G01X14818Y46868D03*
G01X12278Y46868D03*
G01X9738Y46868D03*
G54D19*
G01X69224Y44201D03*
G01X75727Y44201D03*
G54D16*
G01X49108Y50170D03*
G01X46568Y50170D03*
G01X44028Y50170D03*
G01X41488Y50170D03*
G01X38948Y50170D03*
G36*
G01X35508Y51070D02*
G01X37308Y51070D01*
G01X37308Y49270D01*
G01X35508Y49270D01*
G01X35508Y51070D01*
G37*
G54D21*
G01X30114Y3490D03*
G01X35589Y8965D03*
G01X16398Y3490D03*
G01X21873Y8965D03*
G01X23256Y3490D03*
G01X28731Y8965D03*
G01X55655Y3490D03*
G01X50180Y8965D03*
G01X69371Y3490D03*
G01X63896Y8965D03*
G54D22*
G01X13294Y16642D03*
G01X13294Y14102D03*
G54D23*
G01X53158Y31096D03*
G01X53158Y27996D03*
G01X32357Y27996D03*
G01X32357Y31096D03*
G54D12*
G01X56435Y39400D03*
G01X55358Y27995D03*
G54D24*
G01X68347Y31348D02*
G01X69847Y31348D01*
G01X68347Y26827D02*
G01X69847Y26827D01*
G01X74850Y31348D02*
G01X76350Y31348D01*
G01X74850Y26827D02*
G01X76350Y26827D01*
G01X9419Y31348D02*
G01X10919Y31348D01*
G01X9419Y26827D02*
G01X10919Y26827D01*
G01X15922Y31348D02*
G01X17422Y31348D01*
G01X15922Y26827D02*
G01X17422Y26827D01*
G01X68347Y17759D02*
G01X69847Y17759D01*
G01X68347Y13238D02*
G01X69847Y13238D01*
G01X74850Y17759D02*
G01X76350Y17759D01*
G01X74850Y13238D02*
G01X76350Y13238D01*
M00*
M02*
