G04 Layer: BottomPasteMaskLayer*
G04 EasyEDA v6.4.7, 2020-11-20T12:49:30+01:00*
G04 3459f72c1cfb4ed1b42eaf7d9b2f9cca,50b924b206514efda7368a069ed08794,10*
G04 Gerber Generator version 0.2*
G04 Scale: 100 percent, Rotated: No, Reflected: No *
G04 Dimensions in millimeters *
G04 leading zeros omitted , absolute positions ,3 integer and 3 decimal *
%FSLAX33Y33*%
%MOMM*%
G90*
D02*


%LPD*%
G36*
G01X51657Y29596D02*
G01X51593Y30668D01*
G01X51399Y31725D01*
G01X51079Y32751D01*
G01X50638Y33732D01*
G01X50082Y34651D01*
G01X49419Y35497D01*
G01X48659Y36257D01*
G01X47813Y36920D01*
G01X46894Y37476D01*
G01X45913Y37917D01*
G01X44887Y38237D01*
G01X43830Y38431D01*
G01X42758Y38495D01*
G01X41685Y38431D01*
G01X40628Y38237D01*
G01X39602Y37917D01*
G01X38621Y37476D01*
G01X37702Y36920D01*
G01X36856Y36257D01*
G01X36096Y35497D01*
G01X35433Y34651D01*
G01X34877Y33732D01*
G01X34436Y32751D01*
G01X34116Y31725D01*
G01X33922Y30668D01*
G01X33858Y29596D01*
G01X33922Y28523D01*
G01X34116Y27466D01*
G01X34436Y26440D01*
G01X34877Y25459D01*
G01X35433Y24540D01*
G01X36096Y23694D01*
G01X36856Y22934D01*
G01X37702Y22271D01*
G01X38621Y21715D01*
G01X39602Y21274D01*
G01X40628Y20954D01*
G01X41685Y20760D01*
G01X42758Y20696D01*
G01X43830Y20760D01*
G01X44887Y20954D01*
G01X45913Y21274D01*
G01X46894Y21715D01*
G01X47813Y22271D01*
G01X48659Y22934D01*
G01X49419Y23694D01*
G01X50082Y24540D01*
G01X50638Y25459D01*
G01X51079Y26440D01*
G01X51399Y27466D01*
G01X51593Y28523D01*
G01X51657Y29596D01*
G37*
M00*
M02*
