G04 Layer: TopSolderMaskLayer*
G04 EasyEDA v6.4.7, 2020-11-20T12:49:30+01:00*
G04 3459f72c1cfb4ed1b42eaf7d9b2f9cca,50b924b206514efda7368a069ed08794,10*
G04 Gerber Generator version 0.2*
G04 Scale: 100 percent, Rotated: No, Reflected: No *
G04 Dimensions in millimeters *
G04 leading zeros omitted , absolute positions ,3 integer and 3 decimal *
%FSLAX33Y33*%
%MOMM*%
G90*
D02*

%ADD40C,2.203196*%
%ADD41C,4.013200*%
%ADD42C,1.981200*%
%ADD44C,2.003196*%
%ADD46C,1.600200*%
%ADD47C,2.082800*%
%ADD49C,1.623060*%
%ADD50C,1.854200*%
%ADD51C,2.503170*%

%LPD*%
G54D40*
G01X68347Y31348D02*
G01X69847Y31348D01*
G01X68347Y26827D02*
G01X69847Y26827D01*
G01X74850Y31348D02*
G01X76350Y31348D01*
G01X74850Y26827D02*
G01X76350Y26827D01*
G01X9419Y31348D02*
G01X10919Y31348D01*
G01X9419Y26827D02*
G01X10919Y26827D01*
G01X15922Y31348D02*
G01X17422Y31348D01*
G01X15922Y26827D02*
G01X17422Y26827D01*
G01X68347Y17759D02*
G01X69847Y17759D01*
G01X68347Y13238D02*
G01X69847Y13238D01*
G01X74850Y17759D02*
G01X76350Y17759D01*
G01X74850Y13238D02*
G01X76350Y13238D01*
G54D41*
G01X4658Y49535D03*
G01X80985Y49535D03*
G01X4658Y4577D03*
G01X80985Y4577D03*
G54D42*
G01X43834Y43009D03*
G01X46374Y43009D03*
G01X38754Y43009D03*
G36*
G01X40304Y42019D02*
G01X40304Y44000D01*
G01X42285Y44000D01*
G01X42285Y42019D01*
G01X40304Y42019D01*
G37*
G54D44*
G01X40345Y4958D03*
G01X42885Y4958D03*
G01X45425Y4958D03*
G36*
G01X8937Y38447D02*
G01X8937Y40048D01*
G01X10538Y40048D01*
G01X10538Y38447D01*
G01X8937Y38447D01*
G37*
G54D46*
G01X12278Y39248D03*
G01X14818Y39248D03*
G01X17358Y39248D03*
G01X17358Y46868D03*
G01X14818Y46868D03*
G01X12278Y46868D03*
G01X9738Y46868D03*
G54D47*
G01X69224Y44201D03*
G01X75727Y44201D03*
G54D44*
G01X49108Y50170D03*
G01X46568Y50170D03*
G01X44028Y50170D03*
G01X41488Y50170D03*
G01X38948Y50170D03*
G36*
G01X35407Y49169D02*
G01X35407Y51170D01*
G01X37408Y51170D01*
G01X37408Y49169D01*
G01X35407Y49169D01*
G37*
G54D49*
G01X30114Y3490D03*
G01X35589Y8965D03*
G01X16398Y3490D03*
G01X21873Y8965D03*
G01X23256Y3490D03*
G01X28731Y8965D03*
G01X55655Y3490D03*
G01X50180Y8965D03*
G01X69371Y3490D03*
G01X63896Y8965D03*
G54D50*
G01X13294Y16642D03*
G01X13294Y14102D03*
G54D51*
G01X53158Y31096D03*
G01X53158Y27996D03*
G01X32357Y27996D03*
G01X32357Y31096D03*
M00*
M02*
