G04 Layer: BottomLayer*
G04 EasyEDA v6.4.7, 2020-11-20T12:49:30+01:00*
G04 3459f72c1cfb4ed1b42eaf7d9b2f9cca,50b924b206514efda7368a069ed08794,10*
G04 Gerber Generator version 0.2*
G04 Scale: 100 percent, Rotated: No, Reflected: No *
G04 Dimensions in millimeters *
G04 leading zeros omitted , absolute positions ,3 integer and 3 decimal *
%FSLAX33Y33*%
%MOMM*%
G90*
D02*

%ADD11C,0.699999*%
%ADD12C,0.610006*%
%ADD13C,3.810000*%
%ADD14C,1.778000*%
%ADD16C,1.799996*%
%ADD18C,1.397000*%
%ADD19C,1.879600*%
%ADD21C,1.419860*%
%ADD22C,1.651000*%
%ADD23C,2.299970*%
%ADD24C,1.999996*%

%LPD*%
G54D11*
G01X16672Y31348D02*
G01X19110Y33787D01*
G01X19110Y45115D01*
G01X17358Y46868D01*
G01X21874Y8966D02*
G01X21874Y26146D01*
G01X16672Y31348D01*
G01X69097Y17759D02*
G01X71912Y14945D01*
G01X71912Y12321D01*
G01X68556Y8966D01*
G01X63895Y8966D01*
G01X69097Y26827D02*
G01X51236Y8966D01*
G01X50179Y8966D01*
G01X50179Y8966D02*
G01X49433Y8966D01*
G01X45425Y4958D01*
G01X36408Y48216D02*
G01X39674Y44950D01*
G01X41294Y44950D01*
G01X36408Y50170D02*
G01X36408Y48216D01*
G01X41294Y43009D02*
G01X41294Y44950D01*
G01X9738Y46868D02*
G01X13040Y50170D01*
G01X36408Y50170D01*
G01X9738Y46868D02*
G01X7347Y44477D01*
G01X7347Y29649D01*
G01X10169Y26827D01*
G01X10169Y26827D02*
G01X10169Y19766D01*
G01X13294Y16642D01*
G01X69097Y31348D02*
G01X62503Y31348D01*
G01X44028Y49824D01*
G01X44028Y50170D01*
G01X12278Y46868D02*
G01X14028Y48618D01*
G01X18285Y48618D01*
G01X28732Y38171D01*
G01X28732Y8966D01*
G01X16397Y3489D02*
G01X16397Y16192D01*
G01X13802Y18788D01*
G01X13802Y35692D01*
G01X17358Y39248D01*
G01X42758Y29596D02*
G01X38754Y33599D01*
G01X38754Y43009D01*
G01X69097Y13238D02*
G01X66222Y13238D01*
G01X66222Y13238D02*
G01X65402Y13238D01*
G01X55656Y3489D01*
G01X56435Y39400D02*
G01X56435Y43543D01*
G01X54066Y45915D01*
G01X50599Y45915D01*
G01X46568Y49943D01*
G01X46568Y50170D01*
G01X66222Y13238D02*
G01X66222Y18620D01*
G01X72003Y24404D01*
G01X72003Y32125D01*
G01X64729Y39400D01*
G01X56435Y39400D01*
G01X32359Y31097D02*
G01X32359Y27995D01*
G01X53159Y27995D02*
G01X53159Y31097D01*
G01X42885Y4958D02*
G01X42885Y15521D01*
G01X55358Y27995D01*
G01X58003Y28145D02*
G01X58320Y27828D01*
G01X58320Y26779D01*
G01X52247Y20706D01*
G01X52247Y18148D01*
G01X43895Y9796D01*
G01X43685Y9796D01*
G01X42885Y8996D01*
G01X42885Y8508D01*
G36*
G01X51657Y29596D02*
G01X51593Y30668D01*
G01X51399Y31725D01*
G01X51079Y32751D01*
G01X50638Y33732D01*
G01X50082Y34651D01*
G01X49419Y35497D01*
G01X48659Y36257D01*
G01X47813Y36920D01*
G01X46894Y37476D01*
G01X45913Y37917D01*
G01X44887Y38237D01*
G01X43830Y38431D01*
G01X42758Y38495D01*
G01X42758Y38495D01*
G01X41685Y38431D01*
G01X40628Y38237D01*
G01X39602Y37917D01*
G01X38621Y37476D01*
G01X37702Y36920D01*
G01X36856Y36257D01*
G01X36096Y35497D01*
G01X35433Y34651D01*
G01X34877Y33732D01*
G01X34436Y32751D01*
G01X34116Y31725D01*
G01X33922Y30668D01*
G01X33858Y29596D01*
G01X33858Y29596D01*
G01X33922Y28523D01*
G01X34116Y27466D01*
G01X34436Y26440D01*
G01X34877Y25459D01*
G01X35433Y24540D01*
G01X36096Y23694D01*
G01X36856Y22934D01*
G01X37702Y22271D01*
G01X38621Y21715D01*
G01X39602Y21274D01*
G01X40628Y20954D01*
G01X41685Y20760D01*
G01X42758Y20696D01*
G01X42758Y20696D01*
G01X43830Y20760D01*
G01X44887Y20954D01*
G01X45913Y21274D01*
G01X46894Y21715D01*
G01X47813Y22271D01*
G01X48659Y22934D01*
G01X49419Y23694D01*
G01X50082Y24540D01*
G01X50638Y25459D01*
G01X51079Y26440D01*
G01X51399Y27466D01*
G01X51593Y28523D01*
G01X51657Y29596D01*
G01X51657Y29596D01*
G37*
G54D13*
G01X4658Y49535D03*
G01X80985Y49535D03*
G01X4658Y4577D03*
G01X80985Y4577D03*
G54D14*
G01X43834Y43009D03*
G01X46374Y43009D03*
G01X38754Y43009D03*
G36*
G01X40405Y43898D02*
G01X42183Y43898D01*
G01X42183Y42120D01*
G01X40405Y42120D01*
G01X40405Y43898D01*
G37*
G54D16*
G01X40345Y4958D03*
G01X42885Y4958D03*
G01X45425Y4958D03*
G36*
G01X9039Y39946D02*
G01X10436Y39946D01*
G01X10436Y38549D01*
G01X9039Y38549D01*
G01X9039Y39946D01*
G37*
G54D18*
G01X12278Y39248D03*
G01X14818Y39248D03*
G01X17358Y39248D03*
G01X17358Y46868D03*
G01X14818Y46868D03*
G01X12278Y46868D03*
G01X9738Y46868D03*
G54D19*
G01X69224Y44201D03*
G01X75727Y44201D03*
G54D16*
G01X49108Y50170D03*
G01X46568Y50170D03*
G01X44028Y50170D03*
G01X41488Y50170D03*
G01X38948Y50170D03*
G36*
G01X35508Y51070D02*
G01X37308Y51070D01*
G01X37308Y49270D01*
G01X35508Y49270D01*
G01X35508Y51070D01*
G37*
G54D21*
G01X30114Y3490D03*
G01X35589Y8965D03*
G01X16398Y3490D03*
G01X21873Y8965D03*
G01X23256Y3490D03*
G01X28731Y8965D03*
G01X55655Y3490D03*
G01X50180Y8965D03*
G01X69371Y3490D03*
G01X63896Y8965D03*
G54D22*
G01X13294Y16642D03*
G01X13294Y14102D03*
G54D23*
G01X53158Y31096D03*
G01X53158Y27996D03*
G01X32357Y27996D03*
G01X32357Y31096D03*
G54D12*
G01X56435Y39400D03*
G01X55358Y27995D03*
G54D24*
G01X68347Y31348D02*
G01X69847Y31348D01*
G01X68347Y26827D02*
G01X69847Y26827D01*
G01X74850Y31348D02*
G01X76350Y31348D01*
G01X74850Y26827D02*
G01X76350Y26827D01*
G01X9419Y31348D02*
G01X10919Y31348D01*
G01X9419Y26827D02*
G01X10919Y26827D01*
G01X15922Y31348D02*
G01X17422Y31348D01*
G01X15922Y26827D02*
G01X17422Y26827D01*
G01X68347Y17759D02*
G01X69847Y17759D01*
G01X68347Y13238D02*
G01X69847Y13238D01*
G01X74850Y17759D02*
G01X76350Y17759D01*
G01X74850Y13238D02*
G01X76350Y13238D01*
M00*
M02*
