;Layer: Drill PTH
;EasyEDA v6.4.7, 2020-11-20T12:49:30+01:00
;3459f72c1cfb4ed1b42eaf7d9b2f9cca,50b924b206514efda7368a069ed08794,10
;Gerber Generator version 0.2
M48
METRIC,LZ,000.000
;Holesize 1 = 0.310 METRIC
T01C0.310
;Holesize 2 = 0.712 METRIC
T02C0.712
;Holesize 3 = 0.814 METRIC
T03C0.814
;Holesize 4 = 0.829 METRIC
T04C0.829
;Holesize 5 = 0.900 METRIC
T05C0.900
;Holesize 6 = 0.901 METRIC
T06C0.901
;Holesize 7 = 1.000 METRIC
T07C1.000
;Holesize 8 = 1.016 METRIC
T08C1.016
;Holesize 9 = 1.200 METRIC
T09C1.200
;Holesize 10 = 2.540 METRIC
T10C2.540
%
G05
G90
T01
X+056435Y+039400
X+055358Y+027995
T02
X+009738Y+039248
X+012278Y+039248
X+014818Y+039248
X+017358Y+039248
X+017358Y+046868
X+014818Y+046868
X+012278Y+046868
X+009738Y+046868
T03
X+040345Y+004958
X+042885Y+004958
X+045425Y+004958
T04
X+030114Y+003490
X+035589Y+008965
X+016398Y+003490
X+021873Y+008965
X+023256Y+003490
X+028731Y+008965
X+055655Y+003490
X+050180Y+008965
X+069371Y+003490
X+063896Y+008965
T05
X+069224Y+044201
X+075727Y+044201
T06
X+013294Y+016642
X+013294Y+014102
T07
X+053158Y+031096G85X+053157Y+031096
X+053158Y+027996G85X+053157Y+027996
X+032358Y+027996G85X+032357Y+027996
X+032358Y+031096G85X+032357Y+031096
T08
X+043832Y+043009G85X+043837Y+043009
X+046372Y+043009G85X+046377Y+043009
X+038752Y+043009G85X+038757Y+043009
X+041292Y+043009G85X+041297Y+043009
X+069097Y+031348
X+069097Y+026827
X+075600Y+031348
X+075600Y+026827
X+010169Y+031348
X+010169Y+026827
X+016672Y+031348
X+016672Y+026827
X+069097Y+017759
X+069097Y+013238
X+075600Y+017759
X+075600Y+013238
T09
X+049108Y+050170
X+046568Y+050170
X+044028Y+050170
X+041488Y+050170
X+038948Y+050170
X+036408Y+050170
T10
X+004658Y+049535
X+080985Y+049535
X+004658Y+004577
X+080985Y+004577
M30
